<svg xmlns="http://www.w3.org/2000/svg" width="128" height="128" viewBox="0 0 128 128" role="img" aria-labelledby="title"><title id="title">구이/훈연 — 그릴 자국이 있는 구운 음식 한 조각</title><path d="M35 38C53 31 92 33 103 46C114 62 99 88 83 96C68 103 31 94 24 78C17 61 19 44 35 38Z" fill="#A5988E"/><path d="M35 32C53 25 92 27 103 40C114 56 99 82 83 90C68 97 31 88 24 72C17 55 19 38 35 32Z" fill="#FFA826"/><path d="M38 47L52 70M57 40L77 74M82 42L95 63" fill="none" stroke="#A5988E" stroke-width="5.5" stroke-linecap="round" stroke-linejoin="round"/><path d="M45 25C38 18 48 16 44 12M79 25C72 18 82 16 78 12" fill="none" stroke="#A5988E" stroke-width="3.5" stroke-linecap="round" stroke-linejoin="round"/></svg>
